<svg width="100" height="27" viewBox="0 0 100 27" fill="none" xmlns="http://www.w3.org/2000/svg">
<path d="M100 13.3409L99.8945 9.76088L99.8697 8.93472V8.82457C99.696 5.80145 98.0953 3.39642 95.5454 1.88486C95.5454 1.88486 95.5391 1.88486 95.5329 1.87874C95.5329 1.87874 95.5267 1.87874 95.5205 1.87262C93.1381 0.465095 90.1787 0 87.1138 0C84.0489 0 81.0088 0.55689 78.614 2.2398C78.4403 2.36219 78.2665 2.49683 78.1052 2.62534C76.1447 0.954669 73.663 0.312103 71.1565 0.312103H34.4832V13.3348H33.3478V0.318223H0V26.18H15.0949C15.1632 26.18 15.2314 26.18 15.2997 26.18H23.0922H70.0025V21.8656H71.0324C72.5338 21.8656 74.0539 21.6575 75.4622 21.1251C76.2688 22.6917 77.5779 23.9463 79.2592 24.8153H79.2654L79.2716 24.8275C81.6851 26.0637 84.6259 26.4982 87.7404 26.4982C90.8549 26.4982 94.0501 25.9291 96.507 24.2278C99.1748 22.3796 99.9876 20.097 99.9876 16.9576C99.9876 15.8806 99.9876 14.5097 99.9876 13.3348L100 13.3409Z" fill="white"/>
<path d="M4.14453 22.092V4.40619H14.8965C16.8198 4.40619 18.2033 4.81621 19.0471 5.63625C19.8971 6.45628 20.3314 7.51498 20.3314 8.81847C20.3314 9.84658 20.0956 10.7033 19.6303 11.3826C19.1588 12.0619 18.5322 12.527 17.7442 12.7779V12.8269C18.83 12.9737 19.6924 13.4021 20.3314 14.1181C20.9828 14.828 21.3055 15.8255 21.3055 17.0923C21.3055 18.6773 20.7347 19.9134 19.6055 20.7824C18.4701 21.6575 16.9687 22.0982 15.1012 22.0982H4.14453V22.092ZM10.0448 18.4141H13.1841C13.7115 18.4141 14.1582 18.2489 14.5304 17.9123C14.9089 17.5818 15.095 17.08 15.095 16.4191C15.095 15.8439 14.9089 15.3971 14.5304 15.0789C14.1582 14.7607 13.7115 14.6016 13.1841 14.6016H10.0448V18.4019V18.4141ZM10.0448 11.9456H13.06C13.5378 11.9456 13.91 11.7865 14.183 11.4683C14.4622 11.1439 14.6049 10.6911 14.6049 10.1097C14.6049 9.52836 14.4684 9.08162 14.183 8.76952C13.91 8.46353 13.5378 8.30442 13.06 8.30442H10.0448V11.9395V11.9456ZM23.0861 22.092V4.40619H29.1973V17.4289H37.2007V22.092H23.0861ZM38.6215 14.7423V4.40619H44.7079V15.1829C44.7079 16.4069 44.9933 17.2759 45.5579 17.796C46.1287 18.3101 46.8732 18.561 47.7976 18.561C48.722 18.561 49.4293 18.304 49.9319 17.796C50.4344 17.282 50.6826 16.413 50.6826 15.1829V4.40619H56.7813V14.7423C56.7813 17.2697 56.0244 19.1791 54.5168 20.4764C53.0154 21.7677 50.8315 22.4103 47.9651 22.4103C45.0987 22.4103 42.7535 21.7799 41.1032 20.5132C39.4529 19.2464 38.6277 17.3248 38.6277 14.7423H38.6215ZM59.7408 22.092V4.40619H71.1504C73.2536 4.40619 74.8357 5.01204 75.8904 6.21761C76.9513 7.41707 77.4787 9.05714 77.4787 11.1378C77.4787 13.2185 76.9637 14.7362 75.94 15.9601C74.9163 17.1779 73.2722 17.7838 71.0263 17.7838H65.8519V22.0982H59.7408V22.092ZM65.8519 13.9896H69.3015C70.0646 13.9896 70.6106 13.7448 70.927 13.2614C71.2496 12.7657 71.4109 12.1047 71.4109 11.2663C71.4109 10.4279 71.2496 9.73031 70.927 9.25909C70.6106 8.78788 70.0646 8.55533 69.3015 8.55533H65.8519V13.9835V13.9896ZM78.7009 17.4901L78.6637 16.3334H84.0676L84.1297 16.872C84.2041 17.5268 84.4895 18.0041 84.992 18.304C85.4946 18.5977 86.3694 18.7446 87.6164 18.7446C88.7642 18.7446 89.5584 18.6161 89.9927 18.3529C90.427 18.0837 90.6441 17.7287 90.6441 17.282C90.6441 16.8658 90.4456 16.5476 90.0423 16.3212C89.6452 16.0948 88.3485 15.7704 86.1398 15.3482C83.6085 14.8586 81.7782 14.1793 80.6429 13.292C79.5199 12.4107 78.9491 11.2113 78.9305 9.70583C78.9243 7.925 79.6192 6.54196 81.0151 5.56281C82.4173 4.57754 84.4523 4.08185 87.1139 4.08185C89.7755 4.08185 91.9408 4.51634 93.3988 5.38534C94.863 6.24209 95.6385 7.46603 95.7254 9.05102L95.7502 9.87718H90.427L90.3897 9.52224C90.2905 9.0755 90.0485 8.7022 89.6638 8.3901C89.2792 8.07187 88.4664 7.91276 87.238 7.91276C86.2267 7.91276 85.5442 8.03516 85.1782 8.27994C84.8183 8.51249 84.6322 8.84295 84.6322 9.25297C84.6322 9.53448 84.8369 9.7915 85.2464 10.0179C85.6621 10.2444 87.0332 10.5565 89.3474 10.9542C91.6616 11.3704 93.4112 11.964 94.5838 12.7412C95.7688 13.5184 96.3582 14.7668 96.3582 16.4803C96.3582 18.3774 95.6137 19.84 94.1309 20.8681C92.6543 21.8901 90.52 22.398 87.7405 22.398C84.961 22.398 82.7585 21.9941 81.1764 21.1802C79.5943 20.3602 78.7692 19.124 78.7009 17.4778V17.4901Z" fill="#6366F1"/>
<path d="M84.7623 25.2559L84.7002 24.0136V23.9708V22.9304V20.0848H83.54V18.9221H78.6263V20.0848H77.7825V20.1215C77.2738 19.9746 76.734 19.9134 76.1818 19.9134C75.1085 19.9134 74.0848 20.1521 73.241 20.7641C73.241 20.7641 73.2286 20.7702 73.2224 20.7763C72.5523 20.2194 71.7396 19.9624 70.8772 19.9624V17.7899H65.8704V22.0553C65.7463 22.0431 65.6222 22.0309 65.5043 22.0309C64.8839 22.0309 64.1766 22.2022 63.6306 22.753C63.1529 23.2303 62.9233 23.8423 62.9233 24.4787C62.9233 25.1152 63.1591 25.721 63.6182 26.1983C64.1642 26.7614 64.8777 26.9388 65.5105 26.9388C65.709 26.9388 65.92 26.9205 66.1309 26.8776H69.8473C70.1823 26.9572 70.5297 26.9878 70.8586 26.9878C71.7396 26.9878 72.5523 26.7002 73.2286 26.1433C73.241 26.1494 73.2472 26.1616 73.2596 26.1677C74.1034 26.7736 75.1271 27 76.188 27C77.2489 27 78.2726 26.7736 79.1164 26.1677C79.1847 26.1188 79.2467 26.0637 79.3088 26.0086C79.377 26.0821 79.4452 26.1494 79.5197 26.2167C80.1711 26.7797 80.9777 26.9633 81.7408 26.9633C82.2185 26.9633 82.6714 26.9449 83.0313 26.8838C83.2733 26.8409 83.5152 26.792 83.7138 26.7369L84.8243 26.4064L84.7623 25.262V25.2559Z" fill="white"/>
<path d="M83.2243 24.0809C83.156 24.0993 83.0816 24.1177 82.9947 24.136C82.9141 24.1544 82.79 24.1605 82.6349 24.1605C82.4363 24.1605 82.2936 24.0993 82.1944 23.9769C82.1013 23.8484 82.0517 23.6342 82.0517 23.3282V22.9243H83.2119V21.5413H82.0517V20.3785H80.1035V21.5413H79.2598V22.9243H80.0415V24.0075C80.0415 24.4848 80.1904 24.852 80.4882 25.109C80.786 25.3661 81.2079 25.4946 81.7415 25.4946C82.2006 25.4946 82.548 25.4762 82.7776 25.4334C83.0071 25.3967 83.1746 25.36 83.2925 25.3232L83.2305 24.0809H83.2243Z" fill="#6366F1"/>
<path d="M78.2356 21.9391C77.7269 21.5596 77.0382 21.3699 76.1758 21.3699C75.3134 21.3699 74.631 21.5596 74.116 21.9391C73.6011 22.3124 73.3467 22.8019 73.3467 23.4139V23.4996C73.3467 24.1177 73.6011 24.6134 74.116 24.9867C74.631 25.3538 75.3196 25.5374 76.1758 25.5374C77.032 25.5374 77.7207 25.3538 78.2294 24.9867C78.7382 24.6195 78.9987 24.1238 78.9987 23.4996V23.4139C78.9987 22.8081 78.7444 22.3185 78.2356 21.9391ZM76.9327 23.5363C76.9327 23.7872 76.8707 23.9647 76.7404 24.0687C76.6163 24.1789 76.424 24.2278 76.1758 24.2278C75.9276 24.2278 75.7353 24.1727 75.605 24.0687C75.4747 23.9586 75.4127 23.7811 75.4127 23.5363V23.3894C75.4127 23.1508 75.4747 22.9733 75.605 22.8693C75.7353 22.7591 75.9214 22.704 76.1758 22.704C76.4302 22.704 76.6163 22.7591 76.7404 22.8693C76.8707 22.9794 76.9327 23.1508 76.9327 23.3894V23.5363Z" fill="#6366F1"/>
<path d="M65.4862 23.4935C65.1263 23.4935 64.8534 23.5853 64.6672 23.775C64.4811 23.9647 64.3818 24.1972 64.3818 24.4787C64.3818 24.7602 64.4749 24.9928 64.6672 25.1825C64.8534 25.3783 65.1263 25.4762 65.4862 25.4762C65.846 25.4762 66.1128 25.3844 66.3052 25.1947C66.4975 25.005 66.5905 24.7664 66.5905 24.4849C66.5905 24.2034 66.4975 23.9647 66.3052 23.7811C66.1128 23.5914 65.8398 23.4996 65.4862 23.4996V23.4935Z" fill="#6366F1"/>
<path d="M70.8652 21.425C70.4743 21.425 70.1579 21.4862 69.9097 21.6148C69.6616 21.7433 69.4878 21.8963 69.3762 22.0737V19.2526H67.335V25.4151H69.3886V25.0601C69.5002 25.1764 69.6802 25.2866 69.9159 25.3845C70.1517 25.4824 70.4619 25.5252 70.8404 25.5252C71.4112 25.5252 71.9075 25.3416 72.317 24.9806C72.7327 24.6134 72.9374 24.1177 72.9374 23.4935V23.4139C72.9374 22.8142 72.7389 22.3308 72.3418 21.9697C71.9447 21.6086 71.4546 21.4312 70.8652 21.4312V21.425ZM70.8776 23.4874C70.8776 23.7322 70.8155 23.9158 70.6915 24.0504C70.5674 24.185 70.3937 24.2462 70.1703 24.2462C69.978 24.2462 69.8105 24.2156 69.6678 24.1605C69.5251 24.1055 69.4382 24.0443 69.3948 23.977V23.0162C69.4382 22.9366 69.5251 22.8693 69.6491 22.802C69.7794 22.7347 69.9345 22.7041 70.1145 22.7041C70.3688 22.7041 70.5612 22.7714 70.6853 22.906C70.8093 23.0406 70.8714 23.2181 70.8714 23.4445V23.4813L70.8776 23.4874Z" fill="#6366F1"/>
</svg>
