<svg width="20" height="19" viewBox="0 0 20 19" fill="none" xmlns="http://www.w3.org/2000/svg">
<path fill-rule="evenodd" clip-rule="evenodd" d="M9.9999 0.399994C4.6959 0.399994 0.399902 4.66701 0.399902 9.93523C0.399902 14.1546 3.1479 17.7184 6.9639 18.9818C7.4439 19.0652 7.6239 18.7792 7.6239 18.5289C7.6239 18.3024 7.6119 17.5515 7.6119 16.7529C5.1999 17.1939 4.5759 16.1689 4.3839 15.6325C4.2759 15.3584 3.8079 14.5121 3.3999 14.2857C3.0639 14.1069 2.5839 13.6659 3.3879 13.654C4.1439 13.642 4.6839 14.3453 4.8639 14.6313C5.7279 16.0735 7.1079 15.6683 7.6599 15.418C7.7439 14.7982 7.9959 14.381 8.2719 14.1426C6.1359 13.9043 3.9039 13.0819 3.9039 9.43463C3.9039 8.39767 4.2759 7.5395 4.8879 6.87203C4.7919 6.63365 4.4559 5.65629 4.9839 4.3452C4.9839 4.3452 5.7879 4.0949 7.6239 5.32256C8.3919 5.10802 9.2079 5.00074 10.0239 5.00074C10.8399 5.00074 11.6559 5.10802 12.4239 5.32256C14.2599 4.08298 15.0639 4.3452 15.0639 4.3452C15.5919 5.65629 15.2559 6.63365 15.1599 6.87203C15.7719 7.5395 16.1439 8.38575 16.1439 9.43463C16.1439 13.0938 13.8999 13.9043 11.7639 14.1426C12.1119 14.4406 12.4119 15.0127 12.4119 15.9067C12.4119 17.182 12.3999 18.207 12.3999 18.5289C12.3999 18.7792 12.5799 19.0771 13.0599 18.9818C14.9656 18.3427 16.6216 17.1261 17.7948 15.5033C18.968 13.8805 19.5993 11.9331 19.5999 9.93523C19.5999 4.66701 15.3039 0.399994 9.9999 0.399994Z" fill="white"/>
</svg>
