<svg width="23" height="17" viewBox="0 0 23 17" fill="none" xmlns="http://www.w3.org/2000/svg">
<path d="M18.7689 1.33569L17.3487 2.40932L11.3013 6.75753L5.254 2.36638L3.83371 1.29275C3.49912 1.02492 3.09067 0.857967 2.65896 0.812563C2.22726 0.767159 1.79128 0.845302 1.40503 1.03731C1.01877 1.22932 0.699229 1.52676 0.485978 1.89277C0.272728 2.25879 0.175144 2.67729 0.205315 3.09645V15.5398C0.205315 15.9271 0.364305 16.2985 0.647308 16.5723C0.930311 16.8462 1.31415 17 1.71437 17H5.254V8.71155L11.3013 13.1027L17.3487 8.71155V17H20.8883C21.2885 17 21.6723 16.8462 21.9554 16.5723C22.2384 16.2985 22.3973 15.9271 22.3973 15.5398V3.09645C22.4182 2.68091 22.3138 2.26847 22.0969 1.90925C21.88 1.55003 21.56 1.25951 21.1756 1.07301C20.7913 0.886498 20.3592 0.812036 19.932 0.85867C19.5047 0.905304 19.1007 1.07103 18.7689 1.33569Z" fill="white"/>
</svg>
