<svg width="20" height="21" viewBox="0 0 20 21" fill="none" xmlns="http://www.w3.org/2000/svg">
<path fill-rule="evenodd" clip-rule="evenodd" d="M7.429 7.76911H11.143V9.61911C11.678 8.55511 13.05 7.59911 15.111 7.59911C19.062 7.59911 20 9.71711 20 13.6031V20.8001H16V14.4881C16 12.2751 15.465 11.0271 14.103 11.0271C12.214 11.0271 11.429 12.3721 11.429 14.4871V20.8001H7.429V7.76911ZM0.57 20.6301H4.57V7.59911H0.57V20.6301ZM5.143 3.35011C5.14315 3.68538 5.07666 4.01734 4.94739 4.3267C4.81812 4.63605 4.62865 4.91662 4.39 5.15211C3.9064 5.63273 3.25181 5.90176 2.57 5.90011C1.88939 5.89965 1.23631 5.63131 0.752 5.15311C0.514211 4.91682 0.325386 4.63593 0.196344 4.32654C0.0673015 4.01715 0.000579132 3.68533 0 3.35011C0 2.67311 0.27 2.02511 0.753 1.54711C1.23689 1.06827 1.89024 0.799811 2.571 0.80011C3.253 0.80011 3.907 1.06911 4.39 1.54711C4.872 2.02511 5.143 2.67311 5.143 3.35011Z" fill="white"/>
</svg>
