<svg xmlns="http://www.w3.org/2000/svg" width="128" height="128"
     viewBox="0 0 128 128" fill="none">
    <g clip-path="url(#clip0_4831_930)">
        <rect width="128" height="128" fill="url(#paint0_linear_4831_930)"/>
        <path d="M53.3506 99.6222C53.9732 100.178 54.9171 99.5724 54.6833 98.7711L44.1085 62.5146C43.9116 61.8395 43.3147 61.3591 42.6134 61.3076C40.902 61.1819 39.1914 61.0413 37.4818 60.8859L23.3354 59.5998C22.675 59.5398 22.2101 60.2324 22.5228 60.8173C30.1746 75.1291 41.1932 88.7659 53.3506 99.6222Z"
              fill="url(#paint1_linear_4831_930)"/>
        <path d="M63.7252 107.287C63.8105 107.579 64.0621 107.799 64.3668 107.799C64.6715 107.799 64.9231 107.579 65.0084 107.287L77.9522 62.9079C78.1135 62.3548 77.6824 61.8073 77.1069 61.832C68.6174 62.1965 60.1162 62.1965 51.6267 61.832C51.0511 61.8073 50.6201 62.3548 50.7814 62.9079L63.7252 107.287Z"
              fill="url(#paint2_linear_4831_930)"/>
        <path d="M74.0503 98.771C73.8165 99.5724 74.7604 100.178 75.383 99.6222C87.5404 88.7659 98.559 75.129 106.211 60.8173C106.523 60.2324 106.059 59.5398 105.398 59.5998L91.2517 60.8859C89.5421 61.0413 87.8316 61.1819 86.1202 61.3076C85.4188 61.3591 84.8219 61.8395 84.625 62.5146L74.0503 98.771Z"
              fill="url(#paint3_linear_4831_930)"/>
        <path d="M105.504 53.2684C106.143 53.2103 106.483 52.4846 106.119 51.9559L92.529 32.2508C91.3538 30.5468 89.4161 29.5293 87.3462 29.5293H76.8966C76.3001 29.5293 75.8939 30.134 76.1195 30.6862L85.5916 53.8691C85.8669 54.5429 86.5451 54.9631 87.2708 54.9057C88.4082 54.8158 89.5451 54.7192 90.6817 54.6159L105.504 53.2684Z"
              fill="url(#paint4_linear_4831_930)"/>
        <path d="M69.2568 30.5625C68.9961 29.9368 68.3848 29.5293 67.7071 29.5293H61.0265C60.3488 29.5293 59.7375 29.9368 59.4768 30.5625L49.5816 54.3109C49.3584 54.8465 49.733 55.4415 50.3126 55.4696C59.6766 55.9229 69.057 55.9229 78.421 55.4696C79.0006 55.4415 79.3751 54.8465 79.152 54.3109L69.2568 30.5625Z"
              fill="url(#paint5_linear_4831_930)"/>
        <path d="M52.6141 30.6862C52.8397 30.134 52.4335 29.5293 51.837 29.5293H41.3874C39.3174 29.5293 37.3797 30.5468 36.2046 32.2508L22.6148 51.9559C22.2502 52.4846 22.5902 53.2103 23.2299 53.2684L38.0518 54.6159C39.1884 54.7192 40.3254 54.8158 41.4628 54.9057C42.1884 54.9631 42.8667 54.5429 43.142 53.8691L52.6141 30.6862Z"
              fill="url(#paint6_linear_4831_930)"/>
    </g>
    <defs>
        <linearGradient id="paint0_linear_4831_930" x1="99.2" y1="133.236" x2="28.7418" y2="5.70182"
                        gradientUnits="userSpaceOnUse">
            <stop stop-color="#405BF2"/>
            <stop offset="1" stop-color="#6FDFDF"/>
            <stop offset="1" stop-color="#6FDFDF"/>
        </linearGradient>
        <linearGradient id="paint1_linear_4831_930" x1="45.5621" y1="19.4386" x2="147.642" y2="232.502"
                        gradientUnits="userSpaceOnUse">
            <stop stop-color="white"/>
            <stop offset="1" stop-color="white" stop-opacity="0"/>
        </linearGradient>
        <linearGradient id="paint2_linear_4831_930" x1="45.5621" y1="19.4386" x2="147.642" y2="232.502"
                        gradientUnits="userSpaceOnUse">
            <stop stop-color="white"/>
            <stop offset="1" stop-color="white" stop-opacity="0"/>
        </linearGradient>
        <linearGradient id="paint3_linear_4831_930" x1="45.5621" y1="19.4386" x2="147.642" y2="232.502"
                        gradientUnits="userSpaceOnUse">
            <stop stop-color="white"/>
            <stop offset="1" stop-color="white" stop-opacity="0"/>
        </linearGradient>
        <linearGradient id="paint4_linear_4831_930" x1="45.5621" y1="19.4386" x2="147.642" y2="232.502"
                        gradientUnits="userSpaceOnUse">
            <stop stop-color="white"/>
            <stop offset="1" stop-color="white" stop-opacity="0"/>
        </linearGradient>
        <linearGradient id="paint5_linear_4831_930" x1="45.5621" y1="19.4386" x2="147.642" y2="232.502"
                        gradientUnits="userSpaceOnUse">
            <stop stop-color="white"/>
            <stop offset="1" stop-color="white" stop-opacity="0"/>
        </linearGradient>
        <linearGradient id="paint6_linear_4831_930" x1="45.5621" y1="19.4386" x2="147.642" y2="232.502"
                        gradientUnits="userSpaceOnUse">
            <stop stop-color="white"/>
            <stop offset="1" stop-color="white" stop-opacity="0"/>
        </linearGradient>
        <clipPath id="clip0_4831_930">
            <path d="M0 64C0 28.6538 28.6538 0 64 0V0C99.3462 0 128 28.6538 128 64V64C128 99.3462 99.3462 128 64 128V128C28.6538 128 0 99.3462 0 64V64Z"
                  fill="white"/>
        </clipPath>
    </defs>
</svg>
