<svg width="107" height="78" viewBox="0 0 107 78" fill="none" xmlns="http://www.w3.org/2000/svg">
<g filter="url(#filter0_i_237_467)">
<path d="M96.7398 32.7013H103.167L104.88 26.4444H98.4536L100.167 20.1874H93.7406L95.4544 13.9305H69.7473L68.0334 20.1874H61.6067L59.8928 26.4444H53.8088L55.5226 20.2709L57.2364 14.0139L58.9502 7.75695H52.5235L54.2373 1.5H28.5301L26.8163 7.75695H20.3895L22.1033 1.5H9.24976L7.53595 7.75695H13.9627L12.2489 14.0139L10.5351 20.2709L8.82131 26.5278L7.1075 32.7848L5.39368 39.0417L3.67987 45.2987L1.96606 51.5556H14.8196L16.5335 45.2987L18.2473 39.0417H31.1008L29.387 45.2987H35.8138L34.1 51.5556H53.0376L51.3238 57.7291H57.7506L56.0368 63.9861H81.7439L80.0301 70.243L78.3163 76.5H84.7431L86.4569 70.243H92.8837L94.5975 63.9861L96.3113 57.7291L98.0251 51.4722L99.7389 45.2152L101.453 38.9583H82.1724L80.4586 45.2152H86.8854L85.1715 51.4722H78.7448L77.031 57.7291H64.1774L65.8912 51.4722H59.4644L61.1782 45.2152L62.892 38.9583L64.6058 32.7013L66.3196 26.4444H72.7464L74.4602 20.1874H87.3138L85.6 26.4444H92.0268L90.313 32.7013H96.7398ZM34.5285 26.5278L32.8146 32.7848H19.9611L21.6749 26.5278L23.3887 20.2709L25.1025 14.0139H31.5293L33.2431 7.75695H46.0967L44.3829 14.0139L42.6691 20.2709L40.9552 26.5278H34.5285ZM37.5276 39.0417L39.2414 32.7848H45.6682L47.382 26.5278H53.4661L51.7522 32.7013L50.0384 38.9583L48.3246 45.2152L42.2406 45.2987L43.9544 39.0417H37.5276Z" fill="#55366B"/>
</g>
<path d="M23.0862 0.75L22.8264 1.69824L21.3723 7.00684H26.2444L27.8069 1.30176L27.9583 0.75H55.22L54.9602 1.69824L53.5061 7.00684H59.9329L59.6741 7.95508L56.2463 20.4688L56.2454 20.4717L54.7952 25.6943H59.3206L60.8831 19.9893L61.0344 19.4375H67.4612L69.0237 13.7324L69.175 13.1807H96.4377L96.178 14.1289L94.7239 19.4375H101.151L100.891 20.3857L99.4368 25.6943H105.864L105.604 26.6426L103.89 32.8994L103.739 33.4512H89.3303L89.5901 32.5029L91.0432 27.1943H84.6174L84.8762 26.2461L86.3303 20.9375H75.0325L73.47 26.6426L73.3186 27.1943H66.8918L65.3293 32.8994L61.9016 45.4131L60.4475 50.7227H66.8743L66.6145 51.6699L65.1604 56.9795H76.4592L78.0217 51.2744L78.1721 50.7227H84.5999L85.9026 45.9648H79.4758L79.7356 45.0176L81.4495 38.7598L81.5999 38.208H102.436L102.176 39.1562L98.7483 51.6699L97.0344 57.9277L93.6067 70.4414L93.4563 70.9932H87.0286L85.4661 76.6982L85.3157 77.25H77.3333L77.593 76.3018L79.3069 70.0449L80.761 64.7363H55.054L55.3137 63.7881L56.7678 58.4795H50.3372L50.6008 57.5283L52.051 52.3057H33.1174L33.3762 51.3574L34.8303 46.0488H28.4036L28.6633 45.1006L30.1174 39.792H18.8196L17.2571 45.4971L15.5432 51.7539L15.3918 52.3057H0.982666L1.24243 51.3574L8.0979 26.3301L9.81177 20.0723L11.5256 13.8154L12.9797 8.50684H6.55298L6.81274 7.55859L8.52661 1.30176L8.67798 0.75H23.0862ZM46.3918 32.9824L46.2405 33.5352H39.8137L38.511 38.292H44.9377L44.678 39.2402L43.2268 44.5342L47.7493 44.4717L49.3147 38.7598L51.0286 32.5029L51.0295 32.501L52.4797 27.2773H47.9543L46.3918 32.9824ZM32.2522 14.2119L32.1018 14.7637H25.6741L24.1116 20.4688L22.3987 26.7256L20.9446 32.0352H32.2424L33.8049 26.3301L33.9563 25.7773H40.3831L41.9456 20.0723L43.6594 13.8154L45.1135 8.50684H33.8147L32.2522 14.2119Z" stroke="url(#paint0_linear_237_467)" stroke-width="1.5"/>
<defs>
<filter id="filter0_i_237_467" x="0" y="0" width="106.846" height="78" filterUnits="userSpaceOnUse" color-interpolation-filters="sRGB">
<feFlood flood-opacity="0" result="BackgroundImageFix"/>
<feBlend mode="normal" in="SourceGraphic" in2="BackgroundImageFix" result="shape"/>
<feColorMatrix in="SourceAlpha" type="matrix" values="0 0 0 0 0 0 0 0 0 0 0 0 0 0 0 0 0 0 127 0" result="hardAlpha"/>
<feOffset/>
<feGaussianBlur stdDeviation="4.8"/>
<feComposite in2="hardAlpha" operator="arithmetic" k2="-1" k3="1"/>
<feColorMatrix type="matrix" values="0 0 0 0 0.377885 0 0 0 0 0 0 0 0 0 0.629808 0 0 0 1 0"/>
<feBlend mode="normal" in2="shape" result="effect1_innerShadow_237_467"/>
</filter>
<linearGradient id="paint0_linear_237_467" x1="6.96606" y1="-2.5" x2="89.9661" y2="79.5" gradientUnits="userSpaceOnUse">
<stop stop-color="#A19EA6"/>
<stop offset="0.9999" stop-color="#682495"/>
</linearGradient>
</defs>
</svg>
